{"title":"Farscape Seizoen 4 DVD 4 (RETAIL) RHoek 2Lions","uid":5966026,"size":4675842704,"categoryP":"video","categoryS":"tv_shows","magnet":"?xt=urn:btih:92774aed38fcedaeec601ee8b62f8c36a2e8a4f5&amp;dn=Farscape+Seizoen+4+DVD+4+%28RETAIL%29+RHoek+2Lions&amp;tr=udp%3A%2F%2Ftracker.openbittorrent.com%3A80&amp;tr=udp%3A%2F%2Fopen.demonii.com%3A1337&amp;tr=udp%3A%2F%2Ftracker.coppersurfer.tk%3A6969&amp;tr=udp%3A%2F%2Fexodus.desync.com%3A6969","seeders":0,"leechers":1,"uploader":"RHoek-2lions","files":-1,"time":1290112821,"description":"SORRY, NO ENGLISH THIS TIME. This serie is in English, but the menu isn't.\n\n[IMG]http://image.bayimg.com/oaadjaadh.jpg[/IMG]\n[IMG]http://image.bayimg.com/oaadnaadh.jpg[/IMG]\n~~~~~~~~~~~~~~~~~~~~~~~~~~~~~~~~~~~~~~~~~~~~~~~~~~~~~~~~~\nVERHAALLIJN:\nÃ‚Â¯Ã‚Â¯Ã‚Â¯Ã‚Â¯Ã‚Â¯Ã‚Â¯Ã‚Â¯Ã‚Â¯Ã‚Â¯Ã‚Â¯Ã‚Â¯Ã‚Â¯\nIn de serie raakt de Amerikaanse astronaut John Crichton per abuis in een wormgat verzeild tijdens een experimentele ruimtevlucht. Eenmaal uit het wormgat blijkt hij zich in een compleet nieuw heelal te bevinden. Voordat hij zich hierover ook maar kan verbazen belandt hij midden in een ruimtegevecht, waarin hij per ongeluk een schip ramt, dat vervolgens explodeert. Hij wordt aan boord genomen van een reusachtig levend ruimteschip dat bemand is door een drietal buitenaardse wezens, gevangenen, zo blijkt, die net bezig zijn te ontsnappen uit handen van de Peacekeepers, een mensachtig ras van brute militairen.\n\n~~~~~~~~~~~~~~~~~~~~~~~~~~~~~~~~~~~~~~~~~~~~~~~~~~~~~~~~~\n- Titel: Farscape Seizoen 4 DVD 4 (RETAIL) RHoek\n- Grootte: 4,35 GB\n- Categorie : Beeld\n- Formaat : DVD5 \n- Bron : Retail\n- Genre : Science Fiction\n- Beeld : 4:3\n- Audio : 5.1DD Engels\n- Menu : Ja Custom (met dank aan kessy en machoclown)\n- Ondertitels : Custom Nederlands (met dank aan DaClownz)\n- Genre : Science-Fiction | Avontuur \n\nIMDb: http://www.imdb.com/title/tt0187636/ (8.7 uit 10 !!!)\nOfficiÃƒÂ«le website: http://www.farscape.com\n\n~~~~~~~~~~~~~~~~~~~~~~~~~~~~~~~~~~~~~~~~~~~~~~~~~~~~~~~~~\nVIDEO &amp; AUDIO INFORMATIE\nÃ‚Â¯Ã‚Â¯Ã‚Â¯Ã‚Â¯Ã‚Â¯Ã‚Â¯Ã‚Â¯Ã‚Â¯Ã‚Â¯Ã‚Â¯Ã‚Â¯Ã‚Â¯Ã‚Â¯Ã‚Â¯Ã‚Â¯Ã‚Â¯Ã‚Â¯Ã‚Â¯Ã‚Â¯Ã‚Â¯Ã‚Â¯Ã‚Â¯Ã‚Â¯Ã‚Â¯Ã‚Â¯Ã‚Â¯Ã‚Â¯Ã‚Â¯Ã‚Â¯Ã‚Â¯\nVideo\nID                               : 224 (0xE0)\nFormat                           : MPEG Video\nFormat version                   : Version 2\nFormat profile                   : Main@Main\nFormat settings, BVOP            : Yes\nFormat settings, Matrix          : Default\nFormat settings, GOP             : M=3, N=13\nDuration                         : 39mn 52s\nBit rate mode                    : Constant\nBit rate                         : 3 071 Kbps\nNominal bit rate                 : 9 000 Kbps\nWidth                            : 720 pixels\nHeight                           : 576 pixels\nDisplay aspect ratio             : 2.35:1\nFrame rate                       : 25.000 fps\nStandard                         : PAL\nColor space                      : YUV\nChroma subsampling               : 4:2:0\nBit depth                        : 8 bits\nScan type                        : Interlaced\nScan order                       : Top Field First\nBits/(Pixel*Frame)               : 0.296\nStream size                      : 876 MiB (86%)\n\nAudio\nID                               : 128 (0x80)\nFormat                           : AC-3\nFormat/Info                      : Audio Coding 3\nMode extension                   : CM (complete main)\nDuration                         : 39mn 52s\nBit rate mode                    : Constant\nBit rate                         : 448 Kbps\nChannel(s)                       : 6 channels\nChannel positions                : Front: L C R, Side: L R, LFE\nSampling rate                    : 48.0 KHz\nBit depth                        : 16 bits\nStream size                      : 128 MiB (12%)\n\n***********************************************\nBrought to you by RHoek aka Ren HÃƒÂ¶ek\n***********************************************","torrent":{"xt":"urn:btih:92774aed38fcedaeec601ee8b62f8c36a2e8a4f5","amp;dn":"Farscape+Seizoen+4+DVD+4+%28RETAIL%29+RHoek+2Lions","amp;tr":["udp%3A%2F%2Ftracker.openbittorrent.com%3A80","udp%3A%2F%2Fopen.demonii.com%3A1337","udp%3A%2F%2Ftracker.coppersurfer.tk%3A6969","udp%3A%2F%2Fexodus.desync.com%3A6969"],"infoHash":"92774aed38fcedaeec601ee8b62f8c36a2e8a4f5","infoHashBuffer":{"type":"Buffer","data":[146,119,74,237,56,252,237,174,236,96,30,232,182,47,140,54,162,232,164,245]},"announce":[],"urlList":[]}}